# xmcd
#
# Track frame offsets:
#	150
#	10565
#	23855
#	36875
#	47394
#	60293
#	71168
#	83758
#	100754
#	112118
#	132758
#	154674
#	171745
#	185541
#	198208
#	208419
#
# Disc length: 2999 seconds
#
# Revision: 1
# Processed by: cddbd v1.5.2PL0 Copyright (c) Steve Scherf et al.
# Submitted via: audiograbber 1.83.01
#
DISCID=d50bb510
DTITLE=Ronna, Brad, and Tammy Sue - Ronna, Brad, and Tammy Sue
DYEAR=2007
DGENRE=Country
TTITLE0=Fox On The Run
TTITLE1=Jolene
TTITLE2=If
TTITLE3=Ring Around Your Neck
TTITLE4=Heart To Heart Talk
TTITLE5=Copenhagen
TTITLE6=Tumbling Tumbleweeds
TTITLE7=Blue Bayou
TTITLE8=The Door Is Always Open
TTITLE9=Over The Rainbow
TTITLE10=El Paso
TTITLE11=Why Me
TTITLE12=When I Close My Eyes
TTITLE13=All I Have To Do Is Dream
TTITLE14=Children Go Where I Send Thee
TTITLE15=Seven Bridges Road
EXTD=Ronna Bemis, Brad Magness, Tammy Sue Hogan
EXTT0=(Hazzard)
EXTT1=(Dolly Parton)
EXTT2=(David A Gates)
EXTT3=(Bert Carrol - Russell Moody)
EXTT4=(Lee Ross)
EXTT5=(Robert Earl Keen)
EXTT6=(Bob Nolan)
EXTT7=(Roy Orbison)
EXTT8=(Dickey Lee - Bob McDill)
EXTT9=(E.Y. Harburg - Harold Arien)
EXTT10=(Marty Robbins)
EXTT11=(K. Kristofferson)
EXTT12=(Musick - Springer)
EXTT13=(Feice and Boudleaux Bryant)
EXTT14=(Noel Stookey)
EXTT15=(Steve Young)
PLAYORDER=
